<?xml version="1.0" encoding="utf-8"?><!-- Uploaded to: SVG Repo, www.svgrepo.com, Generator: SVG Repo Mixer Tools -->
<svg width="800px" height="800px" viewBox="0 0 24 24" fill="none" xmlns="http://www.w3.org/2000/svg">
<path d="M11.8 22.38C3.1 22.38 3 13.71 3 13.62V5.53C2.99968 5.38752 3.03995 5.24789 3.1161 5.12746C3.19226 5.00704 3.30114 4.91079 3.43 4.85L11.48 1.07C11.5808 1.02535 11.6898 1.00229 11.8 1.00229C11.9102 1.00229 12.0192 1.02535 12.12 1.07L20.12 4.85C20.2507 4.90934 20.3617 5.00496 20.4397 5.1255C20.5177 5.24604 20.5594 5.38643 20.56 5.53V13.62C20.6 13.69 20.5 22.38 11.8 22.38ZM4.5 6.01V13.62C4.5 13.92 4.61 20.88 11.8 20.88C18.99 20.88 19.1 13.88 19.1 13.62V6.01L11.8 2.58L4.5 6.01Z" fill="#000000"/>
<path d="M11.8 22.38C11.6011 22.38 11.4103 22.301 11.2697 22.1603C11.129 22.0197 11.05 21.8289 11.05 21.63V1.75C11.05 1.55109 11.129 1.36032 11.2697 1.21967C11.4103 1.07902 11.6011 1 11.8 1C11.9989 1 12.1897 1.07902 12.3303 1.21967C12.471 1.36032 12.55 1.55109 12.55 1.75V21.63C12.5474 21.8281 12.4675 22.0174 12.3275 22.1575C12.1874 22.2976 11.9981 22.3774 11.8 22.38Z" fill="#000000"/>
<path d="M19.85 12.44H3.79999C3.60108 12.44 3.41031 12.361 3.26966 12.2203C3.12901 12.0797 3.04999 11.8889 3.04999 11.69C3.04999 11.4911 3.12901 11.3003 3.26966 11.1597C3.41031 11.019 3.60108 10.94 3.79999 10.94H19.9C20.0989 10.94 20.2897 11.019 20.4303 11.1597C20.571 11.3003 20.65 11.4911 20.65 11.69C20.65 11.8889 20.571 12.0797 20.4303 12.2203C20.2897 12.361 20.0989 12.44 19.9 12.44H19.85Z" fill="#000000"/>
</svg>