<?xml version="1.0" encoding="utf-8"?><!-- Uploaded to: SVG Repo, www.svgrepo.com, Generator: SVG Repo Mixer Tools -->
<svg width="800px" height="800px" viewBox="0 0 24 24" fill="none" xmlns="http://www.w3.org/2000/svg">
<path d="M12 23.41C11.9037 23.411 11.8083 23.393 11.719 23.3569C11.6298 23.3209 11.5485 23.2676 11.48 23.2L7.58999 19.37C7.44654 19.2305 7.36389 19.0401 7.35999 18.84V7.23002C7.35999 7.03111 7.439 6.84034 7.57966 6.69969C7.72031 6.55904 7.91107 6.48002 8.10998 6.48002H15.89C15.988 6.47869 16.0853 6.49686 16.1762 6.53345C16.2672 6.57005 16.3499 6.62434 16.4197 6.69319C16.4895 6.76204 16.5449 6.84406 16.5827 6.9345C16.6205 7.02494 16.64 7.12199 16.64 7.22002L16.72 18.76C16.7198 18.9589 16.6407 19.1495 16.5 19.29L12.56 23.2C12.4854 23.2706 12.3974 23.3255 12.3012 23.3616C12.205 23.3977 12.1026 23.4141 12 23.41ZM8.85998 18.52L12 21.61L15.19 18.45L15.15 8.00002H8.85998V18.52Z" fill="#000000"/>
<path d="M19.7 8H4.29999C4.10108 8 3.91031 7.92098 3.76966 7.78033C3.62901 7.63968 3.54999 7.44891 3.54999 7.25C3.54999 7.05109 3.62901 6.86032 3.76966 6.71967C3.91031 6.57902 4.10108 6.5 4.29999 6.5H19.7C19.8989 6.5 20.0897 6.57902 20.2303 6.71967C20.371 6.86032 20.45 7.05109 20.45 7.25C20.45 7.44891 20.371 7.63968 20.2303 7.78033C20.0897 7.92098 19.8989 8 19.7 8Z" fill="#000000"/>
<path d="M14.36 8.00001C14.2615 7.99871 14.1642 7.97802 14.0737 7.93911C13.9832 7.90021 13.9013 7.84387 13.8326 7.77329C13.7638 7.70272 13.7097 7.6193 13.6732 7.5278C13.6368 7.4363 13.6187 7.33851 13.62 7.24001C13.62 5.53001 13.62 3.66001 13.62 2.69001H10.42V7.23001C10.42 7.42893 10.341 7.61969 10.2003 7.76034C10.0597 7.901 9.8689 7.98001 9.66998 7.98001C9.47107 7.98001 9.28031 7.901 9.13965 7.76034C8.999 7.61969 8.91998 7.42893 8.91998 7.23001V1.92001C8.91998 1.7211 8.999 1.53034 9.13965 1.38968C9.28031 1.24903 9.47107 1.17001 9.66998 1.17001H14.34C14.5388 1.17019 14.7295 1.24932 14.87 1.39001C15.16 1.68001 15.16 1.69001 15.09 7.24001C15.0927 7.43723 15.0176 7.62758 14.881 7.76982C14.7443 7.91207 14.5572 7.99477 14.36 8.00001Z" fill="#000000"/>
</svg>