<?xml version="1.0" encoding="utf-8"?>

<!DOCTYPE svg PUBLIC "-//W3C//DTD SVG 1.1//EN" "http://www.w3.org/Graphics/SVG/1.1/DTD/svg11.dtd">
<!-- Uploaded to: SVG Repo, www.svgrepo.com, Generator: SVG Repo Mixer Tools -->
<svg version="1.1" id="_x32_" xmlns="http://www.w3.org/2000/svg" xmlns:xlink="http://www.w3.org/1999/xlink" 
	 width="800px" height="800px" viewBox="0 0 512 512"  xml:space="preserve">
<style type="text/css">
<![CDATA[
	.st0{fill:#000000;}
]]>
</style>
<g>
	<path class="st0" d="M392.199,295.438c-1.438-3.797-3.109-7.391-5-10.719c-30.797-53.813-48.781-51.578-57.641-91.859
		c-6.125-27.828,2.938-33.766-15.406-64.984c-11.828-20.094-36.453-34.219-38.734-56.5c-2.219-21.672,28.688-46.125,0.453-71.375
		c6.391,24.031-22.813,23.906-40.578,48.125c-18.422,25.094-7.125,55.375-2.453,66.578c16.906,40.797-37.703,72.375-62.672,101.281
		c-44.125,51.094-46.359,68.906-52.5,82.828c-1.516,3.469-2.547,6.5-3.281,9.297c-6.953,18.672-10.406,38.969-9.375,60.125
		c4.109,83.375,75.031,147.672,158.406,143.578c83.391-4.094,147.672-75.016,143.563-158.406
		C405.965,332.626,400.684,313.095,392.199,295.438z M243.652,468.423c0.922-0.047,2.234-0.109,4.031-0.188
		C246.09,468.313,244.699,468.36,243.652,468.423z M260.965,467.642c0,0-0.891,0.047-2.234,0.094
		C259.512,467.704,260.121,467.673,260.965,467.642c-61.844,2.781-94.344-54.313-78.75-106.453
		c18.141-43.625,50.891-70,79.938-106.469c12.109,41.406,48.578,61.656,66.656,98.672
		C356.465,402.892,319.402,464.938,260.965,467.642z"/>
</g>
</svg>